<!DOCTYPE svg PUBLIC "-//W3C//DTD SVG 1.1//EN" "http://www.w3.org/Graphics/SVG/1.1/DTD/svg11.dtd">
<!-- Uploaded to: SVG Repo, www.svgrepo.com, Transformed by: SVG Repo Mixer Tools -->
<svg height="125px" width="125px" version="1.1" id="Capa_1" xmlns="http://www.w3.org/2000/svg" xmlns:xlink="http://www.w3.org/1999/xlink" viewBox="-39.85 -39.85 478.23 478.23" xml:space="preserve" fill="#FFB92B" stroke="#FFB92B" stroke-width="0.00398528" transform="matrix(1, 0, 0, 1, 0, 0)rotate(0)">
<g id="SVGRepo_bgCarrier" stroke-width="0">
<rect x="-39.85" y="-39.85" width="478.23" height="478.23" rx="239.115" fill="#242424" strokewidth="0"/>
</g>
<g id="SVGRepo_tracerCarrier" stroke-linecap="round" stroke-linejoin="round"/>
<g id="SVGRepo_iconCarrier"> <g> <path style="fill:#rgb(255,185,43);" d="M315.232,9.015C311.883,3.276,305.681,0,298.244,0h-91.308c-10.9,0-22.224,7.113-26.93,16.924 L83.17,218.041c-3.162,6.56-2.967,13.518,0.471,19.037c3.463,5.568,9.592,8.811,16.859,8.966l71.662,0.902l-51.877,129.675 c-1.276,3.235-3.959,10.014,0.821,16.981c2.089,3.056,5.674,4.926,9.364,4.926h0.837c6.999,0,11.217-5.308,13.241-7.868 L312.176,180.17c7.153-8.966,4.202-17.013,3.121-19.354c-1.122-2.243-5.625-9.592-17.046-9.592h-53.34l69.8-122.985 C318.37,21.752,318.573,14.729,315.232,9.015z"/> </g> </g>
</svg>